<svg id="noun_Next_1442934" xmlns="http://www.w3.org/2000/svg" width="32" height="32" viewBox="0 0 32 32">
  <g id="Group_18" data-name="Group 18" transform="translate(0 0)">
    <path id="Path_10" data-name="Path 10" d="M12.447,10.171a1.445,1.445,0,0,1,2.044-2.044l6.874,6.827a1.515,1.515,0,0,1,0,2.09l-6.874,6.827a1.379,1.379,0,0,1-2.044,0,1.458,1.458,0,0,1,0-2.044L18.3,16.023ZM16.023,0A15.937,15.937,0,0,1,27.309,4.691,15.774,15.774,0,0,1,32,16.023,16.016,16.016,0,0,1,16.023,32,15.774,15.774,0,0,1,4.691,27.309,16,16,0,0,1,16.023,0Zm9.242,6.734a13.063,13.063,0,1,0,3.855,9.289,13.063,13.063,0,0,0-3.855-9.289Z" transform="translate(0 0)" fill="#fff"/>
  </g>
</svg>
